<?xml version="1.0" encoding="UTF-8" standalone="no"?>
<svg
   version="1.1"
   viewBox="0 0 509.63782 425.39108"
   fill="none"
   stroke="none"
   stroke-linecap="square"
   stroke-miterlimit="10"
   id="svg159"
   sodipodi:docname="Desenho sem título (1).svg"
   width="509.63782"
   height="425.39108"
   inkscape:version="1.1.2 (0a00cf5339, 2022-02-04, custom)"
   xmlns:inkscape="http://www.inkscape.org/namespaces/inkscape"
   xmlns:sodipodi="http://sodipodi.sourceforge.net/DTD/sodipodi-0.dtd"
   xmlns:xlink="http://www.w3.org/1999/xlink"
   xmlns="http://www.w3.org/2000/svg"
   xmlns:svg="http://www.w3.org/2000/svg">
  <defs
     id="defs163" />
  <sodipodi:namedview
     id="namedview161"
     pagecolor="#ffffff"
     bordercolor="#666666"
     borderopacity="1.0"
     inkscape:pageshadow="2"
     inkscape:pageopacity="0.0"
     inkscape:pagecheckerboard="0"
     showgrid="false"
     fit-margin-top="0"
     fit-margin-left="0"
     fit-margin-right="0"
     fit-margin-bottom="0"
     inkscape:zoom="1.2083333"
     inkscape:cx="480"
     inkscape:cy="360"
     inkscape:window-width="3360"
     inkscape:window-height="1850"
     inkscape:window-x="-12"
     inkscape:window-y="-2172"
     inkscape:window-maximized="1"
     inkscape:current-layer="g157" />
  <clipPath
     id="p.0">
    <path
       d="M 0,0 H 960 V 720 H 0 Z"
       clip-rule="nonzero"
       id="path2" />
  </clipPath>
  <g
     clip-path="url(#p.0)"
     id="g157">
    <path
       fill="#000000"
       fill-opacity="0"
       d="M 0,0 H 960 V 720 H 0 Z"
       fill-rule="evenodd"
       id="path5" />
    <g
       filter="url(#shadowFilter-p.1)"
       id="g9">
      <use
         xlink:href="#p.1"
         transform="translate(0,2)"
         id="use7"
         x="0"
         y="0"
         width="100%"
         height="100%" />
    </g>
    <defs
       id="defs24">
      <filter
         id="shadowFilter-p.1"
         filterUnits="userSpaceOnUse">
        <feGaussianBlur
           in="SourceAlpha"
           stdDeviation="2.0"
           result="blur"
           id="feGaussianBlur11" />
        <feComponentTransfer
           in="blur"
           color-interpolation-filters="sRGB"
           id="feComponentTransfer21">
          <feFuncR
             type="linear"
             slope="0"
             intercept="0.0"
             id="feFuncR13" />
          <feFuncG
             type="linear"
             slope="0"
             intercept="0.0"
             id="feFuncG15" />
          <feFuncB
             type="linear"
             slope="0"
             intercept="0.0"
             id="feFuncB17" />
          <feFuncA
             type="linear"
             slope="0.5"
             intercept="0"
             id="feFuncA19" />
        </feComponentTransfer>
      </filter>
    </defs>
    <g
       id="p.1">
      <path
         fill="#3c78d8"
         d="M 0.56692916,385.8897 H 483.24939 v 39.50137 H 0.56692916 Z"
         fill-rule="evenodd"
         id="path26" />
      <path
         fill="#2f5fac"
         d="m 483.2494,385.8897 25.82147,-25.82147 v 39.50137 l -25.82147,25.82147 z"
         fill-rule="evenodd"
         id="path28" />
      <path
         fill="#6393df"
         d="M 0.56692916,385.8897 26.388392,360.06823 H 509.07085 l -25.82147,25.82147 z"
         fill-rule="evenodd"
         id="path30" />
      <path
         fill="#000000"
         fill-opacity="0"
         d="M 0.56692916,385.8897 26.388392,360.06823 H 509.07085 v 39.50137 l -25.82147,25.82147 H 0.56692016 Z m 0,0 H 483.24939 l 25.82147,-25.82147 m -25.82147,25.82147 v 39.50137"
         fill-rule="evenodd"
         id="path32" />
      <path
         fill="#ffffff"
         d="m 187.56831,411.5004 v -11.45312 h 4.32812 q 1.14063,0 1.73438,0.10937 0.84375,0.14063 1.40625,0.53125 0.57812,0.39063 0.92187,1.10938 0.35938,0.70312 0.35938,1.5625 0,1.45312 -0.9375,2.46875 -0.92188,1.01562 -3.35938,1.01562 h -2.9375 v 4.65625 z m 1.51562,-6.01562 h 2.96875 q 1.46875,0 2.07813,-0.54688 0.625,-0.54687 0.625,-1.53125 0,-0.71875 -0.375,-1.23437 -0.35938,-0.51563 -0.95313,-0.67188 -0.375,-0.10937 -1.40625,-0.10937 h -2.9375 z m 8.96875,6.01562 v -8.29687 h 1.26563 v 1.25 q 0.48437,-0.875 0.89062,-1.15625 0.40625,-0.28125 0.90625,-0.28125 0.70313,0 1.4375,0.45312 l -0.48437,1.29688 q -0.51563,-0.29688 -1.03125,-0.29688 -0.45313,0 -0.82813,0.28125 -0.35937,0.26563 -0.51562,0.76563 -0.23438,0.75 -0.23438,1.64062 v 4.34375 z m 11.01563,-2.67187 1.45312,0.17187 q -0.34375,1.28125 -1.28125,1.98438 -0.92187,0.70312 -2.35937,0.70312 -1.82813,0 -2.89063,-1.125 -1.0625,-1.125 -1.0625,-3.14062 0,-2.09375 1.07813,-3.25 1.07812,-1.15625 2.79687,-1.15625 1.65625,0 2.70313,1.14062 1.0625,1.125 1.0625,3.17188 0,0.125 0,0.375 h -6.1875 q 0.0781,1.375 0.76562,2.10937 0.70313,0.71875 1.73438,0.71875 0.78125,0 1.32812,-0.40625 0.54688,-0.40625 0.85938,-1.29687 z m -4.60938,-2.28125 h 4.625 q -0.0937,-1.04688 -0.53125,-1.5625 -0.67187,-0.8125 -1.73437,-0.8125 -0.96875,0 -1.64063,0.65625 -0.65625,0.64062 -0.71875,1.71875 z m 10.13282,4.95312 -3.15625,-8.29687 h 1.48437 l 1.78125,4.96875 q 0.29688,0.79687 0.53125,1.67187 0.1875,-0.65625 0.53125,-1.57812 l 1.84375,-5.0625 h 1.4375 l -3.14062,8.29687 z m 5.70312,-9.84375 v -1.60937 h 1.40625 v 1.60937 z m 0,9.84375 v -8.29687 h 1.40625 v 8.29687 z m 3.02344,-4.15625 q 0,-2.29687 1.28125,-3.40625 1.07812,-0.92187 2.60937,-0.92187 1.71875,0 2.79688,1.125 1.09375,1.10937 1.09375,3.09375 0,1.59375 -0.48438,2.51562 -0.48437,0.92188 -1.40625,1.4375 -0.90625,0.5 -2,0.5 -1.73437,0 -2.8125,-1.10937 -1.07812,-1.125 -1.07812,-3.23438 z m 1.45312,0 q 0,1.59375 0.6875,2.39063 0.70313,0.79687 1.75,0.79687 1.04688,0 1.73438,-0.79687 0.70312,-0.79688 0.70312,-2.4375 0,-1.53125 -0.70312,-2.32813 -0.6875,-0.79687 -1.73438,-0.79687 -1.04687,0 -1.75,0.79687 -0.6875,0.78125 -0.6875,2.375 z m 13.41407,4.15625 v -1.21875 q -0.96875,1.40625 -2.64063,1.40625 -0.73437,0 -1.375,-0.28125 -0.625,-0.28125 -0.9375,-0.70312 -0.3125,-0.4375 -0.4375,-1.04688 -0.0781,-0.42187 -0.0781,-1.3125 v -5.14062 h 1.40625 v 4.59375 q 0,1.10937 0.0781,1.48437 0.14063,0.5625 0.5625,0.875 0.4375,0.3125 1.0625,0.3125 0.64063,0 1.1875,-0.3125 0.5625,-0.32812 0.78125,-0.89062 0.23438,-0.5625 0.23438,-1.625 v -4.4375 h 1.40625 v 8.29687 z m 2.89843,-2.48437 1.39063,-0.21875 q 0.10937,0.84375 0.64062,1.29687 0.54688,0.4375 1.5,0.4375 0.96875,0 1.4375,-0.39062 0.46875,-0.40625 0.46875,-0.9375 0,-0.46875 -0.40625,-0.75 -0.29687,-0.1875 -1.4375,-0.46875 -1.54687,-0.39063 -2.15625,-0.67188 -0.59375,-0.29687 -0.90625,-0.79687 -0.29687,-0.5 -0.29687,-1.10938 0,-0.5625 0.25,-1.03125 0.25,-0.46875 0.6875,-0.78125 0.32812,-0.25 0.89062,-0.40625 0.57813,-0.17187 1.21875,-0.17187 0.98438,0 1.71875,0.28125 0.73438,0.28125 1.07813,0.76562 0.35937,0.46875 0.5,1.28125 l -1.375,0.1875 q -0.0937,-0.64062 -0.54688,-1 -0.45312,-0.35937 -1.26562,-0.35937 -0.96875,0 -1.39063,0.32812 -0.40625,0.3125 -0.40625,0.73438 0,0.28125 0.17188,0.5 0.17187,0.21875 0.53125,0.375 0.21875,0.0781 1.25,0.35937 1.48437,0.39063 2.07812,0.65625 0.59375,0.25 0.92188,0.73438 0.34375,0.48437 0.34375,1.20312 0,0.70313 -0.42188,1.32813 -0.40625,0.60937 -1.1875,0.95312 -0.76562,0.34375 -1.73437,0.34375 -1.625,0 -2.46875,-0.67187 -0.84375,-0.67188 -1.07813,-2 z m 13.22657,2.48437 v -11.45312 h 1.51562 v 4.70312 h 5.95314 v -4.70312 h 1.51563 v 11.45312 h -1.51563 v -5.40625 h -5.95314 v 5.40625 z m 10.2422,0 4.40625,-11.45312 h 1.64063 l 4.6875,11.45312 h -1.73438 l -1.32812,-3.46875 h -4.79688 l -1.25,3.46875 z m 3.3125,-4.70312 h 3.89063 l -1.20313,-3.17188 q -0.54687,-1.45312 -0.8125,-2.375 -0.21875,1.09375 -0.60937,2.1875 z m 8.10938,1.01562 1.4375,-0.125 q 0.0937,0.85938 0.46875,1.42188 0.375,0.54687 1.15625,0.89062 0.78125,0.32813 1.75,0.32813 0.875,0 1.53125,-0.25 0.67187,-0.26563 0.98437,-0.70313 0.32813,-0.45312 0.32813,-0.98437 0,-0.54688 -0.3125,-0.9375 -0.3125,-0.40625 -1.03125,-0.6875 -0.45313,-0.17188 -2.03125,-0.54688 -1.57813,-0.39062 -2.21875,-0.71875 -0.8125,-0.4375 -1.21875,-1.0625 -0.40625,-0.64062 -0.40625,-1.4375 0,-0.85937 0.48437,-1.60937 0.5,-0.76563 1.4375,-1.15625 0.95313,-0.39063 2.10938,-0.39063 1.28125,0 2.25,0.42188 0.96875,0.40625 1.48437,1.20312 0.53125,0.79688 0.57813,1.79688 l -1.45313,0.10937 q -0.125,-1.07812 -0.79687,-1.625 -0.67188,-0.5625 -2,-0.5625 -1.375,0 -2,0.5 -0.625,0.5 -0.625,1.21875 0,0.60938 0.4375,1.01563 0.4375,0.39062 2.28125,0.8125 1.85937,0.42187 2.54687,0.73437 1,0.45313 1.46875,1.17188 0.48438,0.70312 0.48438,1.625 0,0.90625 -0.53125,1.71875 -0.51563,0.8125 -1.5,1.26562 -0.98438,0.45313 -2.20313,0.45313 -1.5625,0 -2.60937,-0.45313 -1.04688,-0.46875 -1.65625,-1.375 -0.59375,-0.90625 -0.625,-2.0625 z m 11.23437,3.6875 v -11.45312 h 1.51563 v 4.70312 h 5.95312 v -4.70312 h 1.51563 v 11.45312 h -1.51563 v -5.40625 h -5.95312 v 5.40625 z"
         fill-rule="nonzero"
         id="path34" />
    </g>
    <g
       filter="url(#shadowFilter-p.2)"
       id="g39">
      <g
         id="use37"
         transform="translate(0,2)">
        <path
           fill="#3c78d8"
           d="m 0,81.96206 h 483.67575 v 291.9277 H 0 Z"
           fill-rule="evenodd"
           id="path980" />
        <path
           fill="#2f5fac"
           d="M 483.67575,81.96206 509.63779,56.000001 V 347.9277 l -25.96204,25.96207 z"
           fill-rule="evenodd"
           id="path982" />
        <path
           fill="#6393df"
           d="M 0,81.96206 25.962057,56.000001 H 509.63778 L 483.67574,81.96206 Z"
           fill-rule="evenodd"
           id="path984" />
        <path
           fill="#000000"
           fill-opacity="0"
           d="M 0,81.96206 25.962057,56.000001 H 509.63778 V 347.9277 l -25.96204,25.96207 H -9e-6 Z m 0,0 H 483.67575 L 509.63779,56.000001 M 483.67575,81.96206 v 291.9277"
           fill-rule="evenodd"
           id="path986" />
        <path
           fill="#ffffff"
           d="M 205.27538,106.32206 V 94.868935 h 3.95312 q 1.32813,0 2.03125,0.15625 0.98438,0.234375 1.6875,0.828125 0.90625,0.765625 1.34375,1.953125 0.45313,1.1875 0.45313,2.718745 0,1.3125 -0.3125,2.32813 -0.29688,1 -0.78125,1.65625 -0.46875,0.65625 -1.03125,1.04687 -0.5625,0.375 -1.375,0.57813 -0.79688,0.1875 -1.82813,0.1875 z m 1.51562,-1.35938 h 2.45313 q 1.125,0 1.76562,-0.20312 0.65625,-0.21875 1.03125,-0.59375 0.54688,-0.54688 0.84375,-1.45313 0.29688,-0.90625 0.29688,-2.20312 0,-1.796875 -0.59375,-2.765625 -0.57813,-0.96875 -1.42188,-1.296875 -0.60937,-0.234375 -1.96875,-0.234375 H 206.791 Z m 15.27344,0.32813 q -0.78125,0.67187 -1.5,0.95312 -0.71875,0.26563 -1.54687,0.26563 -1.375,0 -2.10938,-0.67188 -0.73437,-0.67187 -0.73437,-1.70312 0,-0.60938 0.28125,-1.10938 0.28125,-0.51562 0.71875,-0.8125 0.45312,-0.3125 1.01562,-0.46875 0.42188,-0.10937 1.25,-0.20312 1.70313,-0.20313 2.51563,-0.48438 0,-0.29687 0,-0.375 0,-0.85937 -0.39063,-1.20312 -0.54687,-0.484375 -1.60937,-0.484375 -0.98438,0 -1.46875,0.359375 -0.46875,0.34375 -0.6875,1.21875 l -1.375,-0.1875 q 0.1875,-0.875 0.60937,-1.421875 0.4375,-0.546875 1.25,-0.828125 0.8125,-0.296875 1.875,-0.296875 1.0625,0 1.71875,0.25 0.67188,0.25 0.98438,0.625 0.3125,0.375 0.4375,0.953125 0.0781,0.35937 0.0781,1.29687 v 1.875 q 0,1.96875 0.0781,2.48438 0.0937,0.51562 0.35937,1 h -1.46875 q -0.21875,-0.4375 -0.28125,-1.03125 z m -0.10937,-3.14063 q -0.76563,0.3125 -2.29688,0.53125 -0.875,0.125 -1.23437,0.28125 -0.35938,0.15625 -0.5625,0.46875 -0.1875,0.29688 -0.1875,0.65625 0,0.5625 0.42187,0.9375 0.4375,0.375 1.25,0.375 0.8125,0 1.4375,-0.34375 0.64063,-0.35937 0.9375,-0.98437 0.23438,-0.46875 0.23438,-1.40625 z m 6.66406,2.90625 0.20312,1.25 q -0.59375,0.125 -1.0625,0.125 -0.76562,0 -1.1875,-0.23437 -0.42187,-0.25 -0.59375,-0.64063 -0.17187,-0.40625 -0.17187,-1.67187 v -4.765625 h -1.03125 v -1.09375 h 1.03125 v -2.0625 l 1.40625,-0.84375 v 2.90625 h 1.40625 v 1.09375 h -1.40625 v 4.843745 q 0,0.60938 0.0625,0.78125 0.0781,0.17188 0.25,0.28125 0.17187,0.0937 0.48437,0.0937 0.23438,0 0.60938,-0.0625 z m 6.78906,0.23438 q -0.78125,0.67187 -1.5,0.95312 -0.71875,0.26563 -1.54687,0.26563 -1.375,0 -2.10938,-0.67188 -0.73437,-0.67187 -0.73437,-1.70312 0,-0.60938 0.28125,-1.10938 0.28125,-0.51562 0.71875,-0.8125 0.45312,-0.3125 1.01562,-0.46875 0.42188,-0.10937 1.25,-0.20312 1.70313,-0.20313 2.51563,-0.48438 0,-0.29687 0,-0.375 0,-0.85937 -0.39063,-1.20312 -0.54687,-0.484375 -1.60937,-0.484375 -0.98438,0 -1.46875,0.359375 -0.46875,0.34375 -0.6875,1.21875 l -1.375,-0.1875 q 0.1875,-0.875 0.60937,-1.421875 0.4375,-0.546875 1.25,-0.828125 0.8125,-0.296875 1.875,-0.296875 1.0625,0 1.71875,0.25 0.67188,0.25 0.98438,0.625 0.3125,0.375 0.4375,0.953125 0.0781,0.35937 0.0781,1.29687 v 1.875 q 0,1.96875 0.0781,2.48438 0.0937,0.51562 0.35937,1 h -1.46875 q -0.21875,-0.4375 -0.28125,-1.03125 z m -0.10937,-3.14063 q -0.76563,0.3125 -2.29688,0.53125 -0.875,0.125 -1.23437,0.28125 -0.35938,0.15625 -0.5625,0.46875 -0.1875,0.29688 -0.1875,0.65625 0,0.5625 0.42187,0.9375 0.4375,0.375 1.25,0.375 0.8125,0 1.4375,-0.34375 0.64063,-0.35937 0.9375,-0.98437 0.23438,-0.46875 0.23438,-1.40625 z m 9.34375,4.17188 h -1.3125 V 94.868935 h 1.40625 v 4.078125 q 0.89062,-1.109375 2.28125,-1.109375 0.76562,0 1.4375,0.3125 0.6875,0.296875 1.125,0.859375 0.45312,0.5625 0.70312,1.35937 0.25,0.78125 0.25,1.67188 0,2.14062 -1.0625,3.3125 -1.04687,1.15625 -2.53125,1.15625 -1.46875,0 -2.29687,-1.23438 z m -0.0156,-4.21875 q 0,1.5 0.40625,2.15625 0.65625,1.09375 1.79688,1.09375 0.92187,0 1.59375,-0.79688 0.67187,-0.8125 0.67187,-2.39062 0,-1.625 -0.65625,-2.390625 -0.64062,-0.78125 -1.54687,-0.78125 -0.92188,0 -1.59375,0.796875 -0.67188,0.79687 -0.67188,2.3125 z m 7.58594,4.21875 V 94.868935 h 1.40625 v 11.453125 z m 3.05469,-4.15625 q 0,-2.296875 1.28126,-3.40625 1.07813,-0.921875 2.60938,-0.921875 1.71875,0 2.79687,1.125 1.09375,1.109375 1.09375,3.093745 0,1.59375 -0.48437,2.51563 -0.48438,0.92187 -1.40625,1.4375 -0.90625,0.5 -2,0.5 -1.73438,0 -2.8125,-1.10938 -1.07814,-1.125 -1.07814,-3.23437 z m 1.45314,0 q 0,1.59375 0.6875,2.39062 0.70312,0.79688 1.75,0.79688 1.04687,0 1.73437,-0.79688 0.70313,-0.79687 0.70313,-2.4375 0,-1.53125 -0.70313,-2.32812 -0.6875,-0.796875 -1.73437,-0.796875 -1.04688,0 -1.75,0.796875 -0.6875,0.78125 -0.6875,2.375 z m 13.38281,1.10937 1.39063,0.1875 q -0.23438,1.42188 -1.17188,2.23438 -0.92187,0.8125 -2.28125,0.8125 -1.70312,0 -2.75,-1.10938 -1.03125,-1.125 -1.03125,-3.20312 0,-1.34375 0.4375,-2.34375 0.45313,-1.015625 1.35938,-1.515625 0.92187,-0.5 1.98437,-0.5 1.35938,0 2.21875,0.6875 0.85938,0.671875 1.09375,1.937495 l -1.35937,0.20313 q -0.20313,-0.828125 -0.70313,-1.25 -0.48437,-0.421875 -1.1875,-0.421875 -1.0625,0 -1.73437,0.765625 -0.65625,0.75 -0.65625,2.40625 0,1.67187 0.64062,2.4375 0.64063,0.75 1.67188,0.75 0.82812,0 1.375,-0.5 0.5625,-0.51563 0.70312,-1.57813 z m 2.59375,3.04688 V 94.868935 h 1.40625 v 6.531245 l 3.32813,-3.374995 h 1.82812 l -3.17187,3.078125 3.48437,5.21875 h -1.73437 l -2.73438,-4.25 -1,0.95312 v 3.29688 z"
           fill-rule="nonzero"
           id="path988" />
      </g>
    </g>
    <defs
       id="defs54">
      <filter
         id="shadowFilter-p.2"
         filterUnits="userSpaceOnUse">
        <feGaussianBlur
           in="SourceAlpha"
           stdDeviation="2.0"
           result="blur"
           id="feGaussianBlur41" />
        <feComponentTransfer
           in="blur"
           color-interpolation-filters="sRGB"
           id="feComponentTransfer51">
          <feFuncR
             type="linear"
             slope="0"
             intercept="0.0"
             id="feFuncR43" />
          <feFuncG
             type="linear"
             slope="0"
             intercept="0.0"
             id="feFuncG45" />
          <feFuncB
             type="linear"
             slope="0"
             intercept="0.0"
             id="feFuncB47" />
          <feFuncA
             type="linear"
             slope="0.5"
             intercept="0"
             id="feFuncA49" />
        </feComponentTransfer>
      </filter>
    </defs>
    <path
       fill="#3c78d8"
       d="m 0,81.96206 h 483.67575 v 291.9277 H 0 Z"
       fill-rule="evenodd"
       id="path56" />
    <path
       fill="#2f5fac"
       d="M 483.67575,81.96206 509.63779,56.000001 V 347.9277 l -25.96204,25.96207 z"
       fill-rule="evenodd"
       id="path58" />
    <path
       fill="#6393df"
       d="M 0,81.96206 25.962057,56.000001 H 509.63778 L 483.67574,81.96206 Z"
       fill-rule="evenodd"
       id="path60" />
    <path
       fill="#000000"
       fill-opacity="0"
       d="M 0,81.96206 25.962057,56.000001 H 509.63778 V 347.9277 l -25.96204,25.96207 H -9e-6 Z m 0,0 H 483.67575 L 509.63779,56.000001 M 483.67575,81.96206 v 291.9277"
       fill-rule="evenodd"
       id="path62" />
    <path
       fill="#ffffff"
       d="M 205.27538,106.32206 V 94.868935 h 3.95312 q 1.32813,0 2.03125,0.15625 0.98438,0.234375 1.6875,0.828125 0.90625,0.765625 1.34375,1.953125 0.45313,1.1875 0.45313,2.718745 0,1.3125 -0.3125,2.32813 -0.29688,1 -0.78125,1.65625 -0.46875,0.65625 -1.03125,1.04687 -0.5625,0.375 -1.375,0.57813 -0.79688,0.1875 -1.82813,0.1875 z m 1.51562,-1.35938 h 2.45313 q 1.125,0 1.76562,-0.20312 0.65625,-0.21875 1.03125,-0.59375 0.54688,-0.54688 0.84375,-1.45313 0.29688,-0.90625 0.29688,-2.20312 0,-1.796875 -0.59375,-2.765625 -0.57813,-0.96875 -1.42188,-1.296875 -0.60937,-0.234375 -1.96875,-0.234375 H 206.791 Z m 15.27344,0.32813 q -0.78125,0.67187 -1.5,0.95312 -0.71875,0.26563 -1.54687,0.26563 -1.375,0 -2.10938,-0.67188 -0.73437,-0.67187 -0.73437,-1.70312 0,-0.60938 0.28125,-1.10938 0.28125,-0.51562 0.71875,-0.8125 0.45312,-0.3125 1.01562,-0.46875 0.42188,-0.10937 1.25,-0.20312 1.70313,-0.20313 2.51563,-0.48438 0,-0.29687 0,-0.375 0,-0.85937 -0.39063,-1.20312 -0.54687,-0.484375 -1.60937,-0.484375 -0.98438,0 -1.46875,0.359375 -0.46875,0.34375 -0.6875,1.21875 l -1.375,-0.1875 q 0.1875,-0.875 0.60937,-1.421875 0.4375,-0.546875 1.25,-0.828125 0.8125,-0.296875 1.875,-0.296875 1.0625,0 1.71875,0.25 0.67188,0.25 0.98438,0.625 0.3125,0.375 0.4375,0.953125 0.0781,0.35937 0.0781,1.29687 v 1.875 q 0,1.96875 0.0781,2.48438 0.0937,0.51562 0.35937,1 h -1.46875 q -0.21875,-0.4375 -0.28125,-1.03125 z m -0.10937,-3.14063 q -0.76563,0.3125 -2.29688,0.53125 -0.875,0.125 -1.23437,0.28125 -0.35938,0.15625 -0.5625,0.46875 -0.1875,0.29688 -0.1875,0.65625 0,0.5625 0.42187,0.9375 0.4375,0.375 1.25,0.375 0.8125,0 1.4375,-0.34375 0.64063,-0.35937 0.9375,-0.98437 0.23438,-0.46875 0.23438,-1.40625 z m 6.66406,2.90625 0.20312,1.25 q -0.59375,0.125 -1.0625,0.125 -0.76562,0 -1.1875,-0.23437 -0.42187,-0.25 -0.59375,-0.64063 -0.17187,-0.40625 -0.17187,-1.67187 v -4.765625 h -1.03125 v -1.09375 h 1.03125 v -2.0625 l 1.40625,-0.84375 v 2.90625 h 1.40625 v 1.09375 h -1.40625 v 4.843745 q 0,0.60938 0.0625,0.78125 0.0781,0.17188 0.25,0.28125 0.17187,0.0937 0.48437,0.0937 0.23438,0 0.60938,-0.0625 z m 6.78906,0.23438 q -0.78125,0.67187 -1.5,0.95312 -0.71875,0.26563 -1.54687,0.26563 -1.375,0 -2.10938,-0.67188 -0.73437,-0.67187 -0.73437,-1.70312 0,-0.60938 0.28125,-1.10938 0.28125,-0.51562 0.71875,-0.8125 0.45312,-0.3125 1.01562,-0.46875 0.42188,-0.10937 1.25,-0.20312 1.70313,-0.20313 2.51563,-0.48438 0,-0.29687 0,-0.375 0,-0.85937 -0.39063,-1.20312 -0.54687,-0.484375 -1.60937,-0.484375 -0.98438,0 -1.46875,0.359375 -0.46875,0.34375 -0.6875,1.21875 l -1.375,-0.1875 q 0.1875,-0.875 0.60937,-1.421875 0.4375,-0.546875 1.25,-0.828125 0.8125,-0.296875 1.875,-0.296875 1.0625,0 1.71875,0.25 0.67188,0.25 0.98438,0.625 0.3125,0.375 0.4375,0.953125 0.0781,0.35937 0.0781,1.29687 v 1.875 q 0,1.96875 0.0781,2.48438 0.0937,0.51562 0.35937,1 h -1.46875 q -0.21875,-0.4375 -0.28125,-1.03125 z m -0.10937,-3.14063 q -0.76563,0.3125 -2.29688,0.53125 -0.875,0.125 -1.23437,0.28125 -0.35938,0.15625 -0.5625,0.46875 -0.1875,0.29688 -0.1875,0.65625 0,0.5625 0.42187,0.9375 0.4375,0.375 1.25,0.375 0.8125,0 1.4375,-0.34375 0.64063,-0.35937 0.9375,-0.98437 0.23438,-0.46875 0.23438,-1.40625 z m 9.34375,4.17188 h -1.3125 V 94.868935 h 1.40625 v 4.078125 q 0.89062,-1.109375 2.28125,-1.109375 0.76562,0 1.4375,0.3125 0.6875,0.296875 1.125,0.859375 0.45312,0.5625 0.70312,1.35937 0.25,0.78125 0.25,1.67188 0,2.14062 -1.0625,3.3125 -1.04687,1.15625 -2.53125,1.15625 -1.46875,0 -2.29687,-1.23438 z m -0.0156,-4.21875 q 0,1.5 0.40625,2.15625 0.65625,1.09375 1.79688,1.09375 0.92187,0 1.59375,-0.79688 0.67187,-0.8125 0.67187,-2.39062 0,-1.625 -0.65625,-2.390625 -0.64062,-0.78125 -1.54687,-0.78125 -0.92188,0 -1.59375,0.796875 -0.67188,0.79687 -0.67188,2.3125 z m 7.58594,4.21875 V 94.868935 h 1.40625 v 11.453125 z m 3.05469,-4.15625 q 0,-2.296875 1.28126,-3.40625 1.07813,-0.921875 2.60938,-0.921875 1.71875,0 2.79687,1.125 1.09375,1.109375 1.09375,3.093745 0,1.59375 -0.48437,2.51563 -0.48438,0.92187 -1.40625,1.4375 -0.90625,0.5 -2,0.5 -1.73438,0 -2.8125,-1.10938 -1.07814,-1.125 -1.07814,-3.23437 z m 1.45314,0 q 0,1.59375 0.6875,2.39062 0.70312,0.79688 1.75,0.79688 1.04687,0 1.73437,-0.79688 0.70313,-0.79687 0.70313,-2.4375 0,-1.53125 -0.70313,-2.32812 -0.6875,-0.796875 -1.73437,-0.796875 -1.04688,0 -1.75,0.796875 -0.6875,0.78125 -0.6875,2.375 z m 13.38281,1.10937 1.39063,0.1875 q -0.23438,1.42188 -1.17188,2.23438 -0.92187,0.8125 -2.28125,0.8125 -1.70312,0 -2.75,-1.10938 -1.03125,-1.125 -1.03125,-3.20312 0,-1.34375 0.4375,-2.34375 0.45313,-1.015625 1.35938,-1.515625 0.92187,-0.5 1.98437,-0.5 1.35938,0 2.21875,0.6875 0.85938,0.671875 1.09375,1.937495 l -1.35937,0.20313 q -0.20313,-0.828125 -0.70313,-1.25 -0.48437,-0.421875 -1.1875,-0.421875 -1.0625,0 -1.73437,0.765625 -0.65625,0.75 -0.65625,2.40625 0,1.67187 0.64062,2.4375 0.64063,0.75 1.67188,0.75 0.82812,0 1.375,-0.5 0.5625,-0.51563 0.70312,-1.57813 z m 2.59375,3.04688 V 94.868935 h 1.40625 v 6.531245 l 3.32813,-3.374995 h 1.82812 l -3.17187,3.078125 3.48437,5.21875 h -1.73437 l -2.73438,-4.25 -1,0.95312 v 3.29688 z"
       fill-rule="nonzero"
       id="path64" />
    <path
       fill="#1155cc"
       d="m 32,149.29659 h 188.97638 v 162.5197 H 32 Z"
       fill-rule="evenodd"
       id="path67" />
    <path
       fill="#ffffff"
       d="m 88.14053,173.65659 v -11.45313 h 4.328125 q 1.140625,0 1.734375,0.10938 0.84375,0.14062 1.40625,0.53125 0.578125,0.39062 0.921875,1.10937 0.359375,0.70313 0.359375,1.5625 0,1.45313 -0.9375,2.46875 -0.921875,1.01563 -3.359375,1.01563 h -2.9375 v 4.65625 z m 1.515625,-6.01563 h 2.96875 q 1.46875,0 2.078125,-0.54687 0.625,-0.54688 0.625,-1.53125 0,-0.71875 -0.375,-1.23438 -0.359375,-0.51562 -0.953125,-0.67187 -0.375,-0.10938 -1.40625,-0.10938 h -2.9375 z m 14.421875,6.01563 v -1.21875 q -0.96875,1.40625 -2.64063,1.40625 -0.73437,0 -1.375,-0.28125 -0.624995,-0.28125 -0.937495,-0.70313 -0.3125,-0.4375 -0.4375,-1.04687 -0.07813,-0.42188 -0.07813,-1.3125 v -5.14063 h 1.406245 v 4.59375 q 0,1.10938 0.0781,1.48438 0.14063,0.5625 0.5625,0.875 0.4375,0.3125 1.0625,0.3125 0.64063,0 1.1875,-0.3125 0.5625,-0.32813 0.78125,-0.89063 0.23438,-0.5625 0.23438,-1.625 v -4.4375 h 1.40625 v 8.29688 z m 4.75781,0 h -1.3125 v -11.45313 h 1.40625 v 4.07813 q 0.89063,-1.10938 2.28125,-1.10938 0.76563,0 1.4375,0.3125 0.6875,0.29688 1.125,0.85938 0.45313,0.5625 0.70313,1.35937 0.25,0.78125 0.25,1.67188 0,2.14062 -1.0625,3.3125 -1.04688,1.15625 -2.53125,1.15625 -1.46875,0 -2.29688,-1.23438 z m -0.0156,-4.21875 q 0,1.5 0.40625,2.15625 0.65625,1.09375 1.79687,1.09375 0.92188,0 1.59375,-0.79688 0.67188,-0.8125 0.67188,-2.39062 0,-1.625 -0.65625,-2.39063 -0.64063,-0.78125 -1.54688,-0.78125 -0.92187,0 -1.59375,0.79688 -0.67187,0.79687 -0.67187,2.3125 z m 7.58593,4.21875 v -11.45313 h 1.40625 v 11.45313 z m 3.58594,-9.84375 v -1.60938 h 1.40625 v 1.60938 z m 0,9.84375 v -8.29688 h 1.40625 v 8.29688 z m 8.96094,-3.04688 1.39062,0.1875 q -0.23437,1.42188 -1.17187,2.23438 -0.92188,0.8125 -2.28125,0.8125 -1.70312,0 -2.75,-1.10938 -1.03125,-1.125 -1.03125,-3.20312 0,-1.34375 0.4375,-2.34375 0.45313,-1.01563 1.35938,-1.51563 0.92187,-0.5 1.98437,-0.5 1.35937,0 2.21875,0.6875 0.85937,0.67188 1.09375,1.9375 l -1.35938,0.20313 q -0.20312,-0.82813 -0.70312,-1.25 -0.48437,-0.42188 -1.1875,-0.42188 -1.0625,0 -1.73437,0.76563 -0.65625,0.75 -0.65625,2.40625 0,1.67187 0.64062,2.4375 0.64063,0.75 1.67188,0.75 0.82812,0 1.37499,-0.5 0.5625,-0.51563 0.70313,-1.57813 z m 12.41406,3.04688 v -1.04688 q -0.78125,1.23438 -2.3125,1.23438 -1,0 -1.82812,-0.54688 -0.82813,-0.54687 -1.29688,-1.53125 -0.45312,-0.98437 -0.45312,-2.25 0,-1.25 0.40625,-2.25 0.42187,-1.01562 1.25,-1.54687 0.82812,-0.54688 1.85937,-0.54688 0.75,0 1.32813,0.3125 0.59375,0.3125 0.95312,0.82813 v -4.10938 h 1.40625 v 11.45313 z m -4.4375,-4.14063 q 0,1.59375 0.67188,2.39063 0.67187,0.78125 1.57812,0.78125 0.92188,0 1.5625,-0.75 0.65625,-0.76563 0.65625,-2.3125 0,-1.70313 -0.65625,-2.5 -0.65625,-0.79688 -1.625,-0.79688 -0.9375,0 -1.5625,0.76563 -0.625,0.76562 -0.625,2.42187 z m 13.36719,3.10938 q -0.78125,0.67187 -1.5,0.95312 -0.71875,0.26563 -1.54688,0.26563 -1.375,0 -2.10937,-0.67188 -0.73438,-0.67187 -0.73438,-1.70312 0,-0.60938 0.28125,-1.10938 0.28125,-0.51562 0.71875,-0.8125 0.45313,-0.3125 1.01563,-0.46875 0.42187,-0.10937 1.25,-0.20312 1.70312,-0.20313 2.51562,-0.48438 0,-0.29687 0,-0.375 0,-0.85937 -0.39062,-1.20312 -0.54688,-0.48438 -1.60938,-0.48438 -0.98437,0 -1.46875,0.35938 -0.46875,0.34375 -0.6875,1.21875 l -1.375,-0.1875 q 0.1875,-0.875 0.60938,-1.42188 0.4375,-0.54687 1.25,-0.82812 0.8125,-0.29688 1.875,-0.29688 1.0625,0 1.71875,0.25 0.67187,0.25 0.98437,0.625 0.3125,0.375 0.4375,0.95313 0.0781,0.35937 0.0781,1.29687 v 1.875 q 0,1.96875 0.0781,2.48438 0.0937,0.51562 0.35938,1 H 150.578 q -0.21875,-0.4375 -0.28125,-1.03125 z m -0.10938,-3.14063 q -0.76562,0.3125 -2.29687,0.53125 -0.875,0.125 -1.23438,0.28125 -0.35937,0.15625 -0.5625,0.46875 -0.1875,0.29688 -0.1875,0.65625 0,0.5625 0.42188,0.9375 0.4375,0.375 1.25,0.375 0.8125,0 1.4375,-0.34375 0.64062,-0.35937 0.9375,-0.98437 0.23437,-0.46875 0.23437,-1.40625 z m 6.66407,2.90625 0.20312,1.25 q -0.59375,0.125 -1.0625,0.125 -0.76562,0 -1.1875,-0.23437 -0.42187,-0.25 -0.59375,-0.64063 -0.17187,-0.40625 -0.17187,-1.67187 v -4.76563 h -1.03125 v -1.09375 h 1.03125 v -2.0625 l 1.40625,-0.84375 v 2.90625 h 1.40625 v 1.09375 h -1.40625 v 4.84375 q 0,0.60938 0.0625,0.78125 0.0781,0.17188 0.25,0.28125 0.17187,0.0937 0.48437,0.0937 0.23438,0 0.60938,-0.0625 z m 6.78906,0.23438 q -0.78125,0.67187 -1.5,0.95312 -0.71875,0.26563 -1.54688,0.26563 -1.375,0 -2.10937,-0.67188 -0.73438,-0.67187 -0.73438,-1.70312 0,-0.60938 0.28125,-1.10938 0.28125,-0.51562 0.71875,-0.8125 0.45313,-0.3125 1.01563,-0.46875 0.42187,-0.10937 1.25,-0.20312 1.70312,-0.20313 2.51562,-0.48438 0,-0.29687 0,-0.375 0,-0.85937 -0.39062,-1.20312 -0.54688,-0.48438 -1.60938,-0.48438 -0.98437,0 -1.46875,0.35938 -0.46875,0.34375 -0.6875,1.21875 l -1.375,-0.1875 q 0.1875,-0.875 0.60938,-1.42188 0.4375,-0.54687 1.25,-0.82812 0.8125,-0.29688 1.875,-0.29688 1.0625,0 1.71875,0.25 0.67187,0.25 0.98437,0.625 0.3125,0.375 0.4375,0.95313 0.0781,0.35937 0.0781,1.29687 v 1.875 q 0,1.96875 0.0781,2.48438 0.0937,0.51562 0.35938,1 h -1.46875 q -0.21875,-0.4375 -0.28125,-1.03125 z m -0.10938,-3.14063 q -0.76562,0.3125 -2.29687,0.53125 -0.875,0.125 -1.23438,0.28125 -0.35937,0.15625 -0.5625,0.46875 -0.1875,0.29688 -0.1875,0.65625 0,0.5625 0.42188,0.9375 0.4375,0.375 1.25,0.375 0.8125,0 1.4375,-0.34375 0.64062,-0.35937 0.9375,-0.98437 0.23437,-0.46875 0.23437,-1.40625 z"
       fill-rule="nonzero"
       id="path69" />
    <path
       fill="#3c78d8"
       d="m 50.060368,187.09186 h 69.007872 v 87.99454 l -11.50155,11.50153 H 50.060359 Z"
       fill-rule="evenodd"
       id="path71" />
    <path
       fill="#2f5fac"
       d="m 107.5667,286.58792 2.3003,-9.20123 9.20125,-2.3003 z"
       fill-rule="evenodd"
       id="path73" />
    <path
       fill="#000000"
       fill-opacity="0"
       d="m 107.5667,286.58792 2.3003,-9.20123 9.20125,-2.3003 -11.50155,11.50153 H 50.060366 v -99.49606 h 69.007874 v 87.99454"
       fill-rule="evenodd"
       id="path75" />
    <path
       stroke="#6d9eeb"
       stroke-width="1"
       stroke-linejoin="round"
       stroke-linecap="butt"
       d="m 107.5667,286.58792 2.3003,-9.20123 9.20125,-2.3003 -11.50155,11.50153 H 50.060366 v -99.49606 h 69.007874 v 87.99454"
       fill-rule="evenodd"
       id="path77" />
    <path
       fill="#ffffff"
       d="m 67.181915,225.186 1.125,-0.15625 q 0.04687,1.09375 0.40625,1.5 0.375,0.39062 1.015625,0.39062 0.484375,0 0.828125,-0.21875 0.34375,-0.21875 0.46875,-0.57812 0.125,-0.375 0.125,-1.20313 v -6.57812 h 1.265625 v 6.5 q 0,1.20312 -0.296875,1.85937 -0.28125,0.65625 -0.90625,1 -0.625,0.34375 -1.46875,0.34375 -1.265625,0 -1.9375,-0.71875 -0.65625,-0.71875 -0.625,-2.14062 z m 6.867188,-0.35938 1.203125,-0.10937 q 0.07813,0.71875 0.390625,1.1875 0.3125,0.45312 0.953125,0.73437 0.65625,0.28125 1.46875,0.28125 0.71875,0 1.265625,-0.21875 0.5625,-0.21875 0.828125,-0.57812 0.265625,-0.375 0.265625,-0.82813 0,-0.45312 -0.265625,-0.78125 -0.25,-0.32812 -0.84375,-0.5625 -0.390625,-0.15625 -1.703125,-0.46875 -1.3125,-0.3125 -1.84375,-0.59375 -0.671875,-0.35937 -1.015625,-0.89062 -0.328125,-0.53125 -0.328125,-1.1875 0,-0.71875 0.40625,-1.34375 0.40625,-0.625 1.1875,-0.95313 0.796875,-0.32812 1.765625,-0.32812 1.046875,0 1.859375,0.34375 0.8125,0.34375 1.25,1.01562 0.4375,0.65625 0.46875,1.48438 l -1.203125,0.0937 q -0.109375,-0.90625 -0.671875,-1.35938 -0.5625,-0.46875 -1.65625,-0.46875 -1.140625,0 -1.671875,0.42188 -0.515625,0.42187 -0.515625,1.01562 0,0.51563 0.359375,0.84375 0.375,0.32813 1.90625,0.6875 1.546875,0.34375 2.109375,0.59375 0.84375,0.39063 1.234375,0.98438 0.390625,0.57812 0.390625,1.35937 0,0.75 -0.4375,1.4375 -0.421875,0.67188 -1.25,1.04688 -0.8125,0.35937 -1.828125,0.35937 -1.296875,0 -2.171875,-0.375 -0.875,-0.375 -1.375,-1.125 -0.5,-0.76562 -0.53125,-1.71875 z m 8.936629,-1.57812 q 0,-2.375 1.28125,-3.71875 1.28125,-1.34375 3.296875,-1.34375 1.3125,0 2.375,0.625 1.0625,0.625 1.609375,1.76562 0.5625,1.125 0.5625,2.5625 0,1.4375 -0.59375,2.59375 -0.578125,1.14063 -1.65625,1.73438 -1.0625,0.57812 -2.3125,0.57812 -1.34375,0 -2.40625,-0.64062 -1.0625,-0.65625 -1.609375,-1.78125 -0.546875,-1.125 -0.546875,-2.375 z m 1.3125,0.0156 q 0,1.71875 0.921875,2.71875 0.921875,0.98438 2.328125,0.98438 1.421875,0 2.34375,-1 0.921875,-1 0.921875,-2.84375 0,-1.15625 -0.40625,-2.03125 -0.390625,-0.875 -1.15625,-1.34375 -0.75,-0.48438 -1.6875,-0.48438 -1.34375,0 -2.3125,0.92188 -0.953125,0.92187 -0.953125,3.07812 z m 9.429551,4.625 v -9.54687 h 1.296875 l 5.015622,7.5 v -7.5 h 1.20313 v 9.54687 h -1.296877 l -5.015625,-7.5 v 7.5 z"
       fill-rule="nonzero"
       id="path79" />
    <path
       fill="#ffffff"
       d="m 61.636562,241.82663 1.15625,-0.1875 q 0.109375,0.70312 0.546875,1.07812 0.453125,0.35938 1.249996,0.35938 0.8125,0 1.203125,-0.32813 0.390625,-0.32812 0.390625,-0.76562 0,-0.39063 -0.359375,-0.625 -0.234375,-0.15625 -1.1875,-0.39063 -1.296871,-0.32812 -1.796871,-0.5625 -0.484375,-0.25 -0.75,-0.65625 -0.25,-0.42187 -0.25,-0.9375 0,-0.45312 0.203125,-0.84375 0.21875,-0.40625 0.578125,-0.67187 0.28125,-0.1875 0.75,-0.32813 0.46875,-0.14062 1.015621,-0.14062 0.8125,0 1.421875,0.23437 0.609375,0.23438 0.90625,0.64063 0.296875,0.39062 0.40625,1.0625 l -1.140625,0.15625 q -0.07813,-0.53125 -0.453125,-0.82813 -0.375,-0.3125 -1.0625,-0.3125 -0.812496,0 -1.156246,0.26563 -0.34375,0.26562 -0.34375,0.625 0,0.23437 0.140625,0.42187 0.15625,0.1875 0.453125,0.3125 0.171875,0.0625 1.031246,0.29688 1.25,0.32812 1.734375,0.54687 0.5,0.20313 0.78125,0.60938 0.28125,0.40625 0.28125,1 0,0.59375 -0.34375,1.10937 -0.34375,0.51563 -1,0.79688 -0.640625,0.28125 -1.453125,0.28125 -1.343746,0 -2.046871,-0.5625 -0.703125,-0.5625 -0.90625,-1.65625 z m 11.648434,-0.46875 1.15625,0.15625 q -0.1875,1.1875 -0.96875,1.85937 -0.78125,0.67188 -1.921875,0.67188 -1.40625,0 -2.28125,-0.92188 -0.859375,-0.9375 -0.859375,-2.65625 0,-1.125 0.375,-1.96875 0.375,-0.84375 1.125,-1.25 0.765625,-0.42187 1.65625,-0.42187 1.125,0 1.84375,0.57812 0.71875,0.5625 0.921875,1.60938 l -1.140625,0.17187 q -0.171875,-0.70312 -0.59375,-1.04687 -0.40625,-0.35938 -0.984375,-0.35938 -0.890625,0 -1.453125,0.64063 -0.546875,0.64062 -0.546875,2 0,1.40625 0.53125,2.03125 0.546875,0.625 1.40625,0.625 0.6875,0 1.140625,-0.42188 0.46875,-0.42187 0.59375,-1.29687 z m 2.148437,2.53125 v -9.54688 h 1.171875 v 3.42188 q 0.828125,-0.9375 2.078125,-0.9375 0.765625,0 1.328125,0.29687 0.5625,0.29688 0.8125,0.84375 0.25,0.53125 0.25,1.54688 v 4.375 h -1.171875 v -4.375 q 0,-0.89063 -0.390625,-1.28125 -0.375,-0.40625 -1.078125,-0.40625 -0.515625,0 -0.984375,0.28125 -0.453125,0.26562 -0.65625,0.73437 -0.1875,0.45313 -0.1875,1.26563 v 3.78125 z m 12.146851,-2.21875 1.203125,0.14062 q -0.28125,1.0625 -1.0625,1.65625 -0.765625,0.57813 -1.96875,0.57813 -1.515625,0 -2.40625,-0.9375 -0.890625,-0.9375 -0.890625,-2.60938 0,-1.75 0.890625,-2.70312 0.90625,-0.96875 2.34375,-0.96875 1.390625,0 2.265625,0.9375 0.875,0.9375 0.875,2.65625 0,0.10937 0,0.3125 h -5.15625 q 0.0625,1.14062 0.640625,1.75 0.578125,0.59375 1.4375,0.59375 0.65625,0 1.109375,-0.32813 0.453125,-0.34375 0.71875,-1.07812 z m -3.84375,-1.90625 h 3.859375 q -0.07813,-0.85938 -0.4375,-1.29688 -0.5625,-0.6875 -1.453125,-0.6875 -0.8125,0 -1.359375,0.54688 -0.546875,0.53125 -0.609375,1.4375 z m 6.521851,4.125 v -6.90625 h 1.046875 v 0.96875 q 0.328125,-0.51563 0.859375,-0.8125 0.546875,-0.3125 1.234375,-0.3125 0.78125,0 1.265625,0.3125 0.484375,0.3125 0.6875,0.89062 0.828125,-1.20312 2.140625,-1.20312 1.03125,0 1.578125,0.57812 0.5625,0.5625 0.5625,1.73438 v 4.75 H 98.46151 v -4.35938 q 0,-0.70312 -0.125,-1 -0.109375,-0.3125 -0.40625,-0.5 -0.296875,-0.1875 -0.703125,-0.1875 -0.71875,0 -1.203125,0.48438 -0.484375,0.48437 -0.484375,1.54687 v 4.01563 H 94.36776 v -4.48438 q 0,-0.78125 -0.296875,-1.17187 -0.28125,-0.39063 -0.921875,-0.39063 -0.5,0 -0.921875,0.26563 -0.421875,0.25 -0.609375,0.75 -0.1875,0.5 -0.1875,1.45312 v 3.57813 z m 15.618055,-0.85938 q -0.65625,0.5625 -1.26562,0.79688 -0.59375,0.21875 -1.28125,0.21875 -1.14063,0 -1.75,-0.54688 -0.60938,-0.5625 -0.60938,-1.4375 0,-0.5 0.21875,-0.92187 0.23438,-0.42188 0.60938,-0.67188 0.375,-0.25 0.84375,-0.39062 0.34375,-0.0781 1.04687,-0.17188 1.42188,-0.17187 2.09375,-0.40625 0,-0.23437 0,-0.29687 0,-0.71875 -0.32812,-1.01563 -0.45313,-0.39062 -1.34375,-0.39062 -0.8125,0 -1.21875,0.29687 -0.39063,0.28125 -0.57813,1.01563 l -1.14062,-0.15625 q 0.15625,-0.73438 0.51562,-1.1875 0.35938,-0.45313 1.03125,-0.6875 0.67188,-0.25 1.5625,-0.25 0.89063,0 1.4375,0.20312 0.5625,0.20313 0.8125,0.53125 0.26563,0.3125 0.375,0.79688 0.0469,0.29687 0.0469,1.07812 v 1.5625 q 0,1.625 0.0781,2.0625 0.0781,0.4375 0.29688,0.82813 h -1.21875 q -0.1875,-0.35938 -0.23438,-0.85938 z m -0.0937,-2.60937 q -0.64062,0.26562 -1.92187,0.4375 -0.71875,0.10937 -1.01563,0.25 -0.29687,0.125 -0.46875,0.375 -0.15625,0.25 -0.15625,0.54687 0,0.46875 0.34375,0.78125 0.35938,0.3125 1.04688,0.3125 0.67187,0 1.20312,-0.29687 0.53125,-0.29688 0.78125,-0.8125 0.1875,-0.39063 0.1875,-1.17188 z"
       fill-rule="nonzero"
       id="path81" />
    <path
       fill="#3c78d8"
       d="m 132.2336,203.67673 v 0 c 0,-9.15956 15.44794,-16.58487 34.50394,-16.58487 19.056,0 34.50393,7.42531 34.50393,16.58487 v 66.33945 c 0,9.15958 -15.44793,16.58487 -34.50393,16.58487 -19.056,0 -34.50394,-7.42529 -34.50394,-16.58487 z"
       fill-rule="evenodd"
       id="path83" />
    <path
       fill="#000000"
       fill-opacity="0"
       d="m 201.24147,203.67673 v 0 c 0,9.15956 -15.44794,16.58487 -34.50394,16.58487 -19.056,0 -34.50393,-7.42531 -34.50393,-16.58487"
       fill-rule="evenodd"
       id="path85" />
    <path
       fill="#000000"
       fill-opacity="0"
       d="m 132.2336,203.67673 v 0 c 0,-9.15956 15.44794,-16.58487 34.50394,-16.58487 19.056,0 34.50393,7.42531 34.50393,16.58487 v 66.33945 c 0,9.15958 -15.44793,16.58487 -34.50393,16.58487 -19.056,0 -34.50394,-7.42529 -34.50394,-16.58487 z"
       fill-rule="evenodd"
       id="path87" />
    <path
       stroke="#6d9eeb"
       stroke-width="1"
       stroke-linejoin="round"
       stroke-linecap="butt"
       d="m 201.24147,203.67673 v 0 c 0,9.15956 -15.44794,16.58487 -34.50394,16.58487 -19.056,0 -34.50393,-7.42531 -34.50393,-16.58487"
       fill-rule="evenodd"
       id="path89" />
    <path
       stroke="#6d9eeb"
       stroke-width="1"
       stroke-linejoin="round"
       stroke-linecap="butt"
       d="m 132.2336,203.67673 v 0 c 0,-9.15956 15.44794,-16.58487 34.50394,-16.58487 19.056,0 34.50393,7.42531 34.50393,16.58487 v 66.33945 c 0,9.15958 -15.44793,16.58487 -34.50393,16.58487 -19.056,0 -34.50394,-7.42529 -34.50394,-16.58487 z"
       fill-rule="evenodd"
       id="path91" />
    <path
       fill="#ffffff"
       d="m 149.35515,239.23576 1.125,-0.15625 q 0.0469,1.09375 0.40625,1.5 0.375,0.39062 1.01562,0.39062 0.48438,0 0.82813,-0.21875 0.34375,-0.21875 0.46875,-0.57812 0.125,-0.375 0.125,-1.20313 v -6.57812 h 1.26562 v 6.5 q 0,1.20312 -0.29687,1.85937 -0.28125,0.65625 -0.90625,1 -0.625,0.34375 -1.46875,0.34375 -1.26563,0 -1.9375,-0.71875 -0.65625,-0.71875 -0.625,-2.14062 z m 6.86719,-0.35938 1.20312,-0.10937 q 0.0781,0.71875 0.39063,1.1875 0.3125,0.45312 0.95312,0.73437 0.65625,0.28125 1.46875,0.28125 0.71875,0 1.26563,-0.21875 0.5625,-0.21875 0.82812,-0.57812 0.26563,-0.375 0.26563,-0.82813 0,-0.45312 -0.26563,-0.78125 -0.25,-0.32812 -0.84375,-0.5625 -0.39062,-0.15625 -1.70312,-0.46875 -1.3125,-0.3125 -1.84375,-0.59375 -0.67188,-0.35937 -1.01563,-0.89062 -0.32812,-0.53125 -0.32812,-1.1875 0,-0.71875 0.40625,-1.34375 0.40625,-0.625 1.1875,-0.95313 0.79687,-0.32812 1.76562,-0.32812 1.04688,0 1.85938,0.34375 0.8125,0.34375 1.25,1.01562 0.4375,0.65625 0.46875,1.48438 l -1.20313,0.0937 q -0.10937,-0.90625 -0.67187,-1.35938 -0.5625,-0.46875 -1.65625,-0.46875 -1.14063,0 -1.67188,0.42188 -0.51562,0.42187 -0.51562,1.01562 0,0.51563 0.35937,0.84375 0.375,0.32813 1.90625,0.6875 1.54688,0.34375 2.10938,0.59375 0.84375,0.39063 1.23437,0.98438 0.39063,0.57812 0.39063,1.35937 0,0.75 -0.4375,1.4375 -0.42188,0.67188 -1.25,1.04688 -0.8125,0.35937 -1.82813,0.35937 -1.29687,0 -2.17187,-0.375 -0.875,-0.375 -1.375,-1.125 -0.5,-0.76562 -0.53125,-1.71875 z m 8.93663,-1.57812 q 0,-2.375 1.28125,-3.71875 1.28125,-1.34375 3.29687,-1.34375 1.3125,0 2.375,0.625 1.0625,0.625 1.60938,1.76562 0.5625,1.125 0.5625,2.5625 0,1.4375 -0.59375,2.59375 -0.57813,1.14063 -1.65625,1.73438 -1.0625,0.57812 -2.3125,0.57812 -1.34375,0 -2.40625,-0.64062 -1.0625,-0.65625 -1.60938,-1.78125 -0.54687,-1.125 -0.54687,-2.375 z m 1.3125,0.0156 q 0,1.71875 0.92187,2.71875 0.92188,0.98438 2.32813,0.98438 1.42187,0 2.34375,-1 0.92187,-1 0.92187,-2.84375 0,-1.15625 -0.40625,-2.03125 -0.39062,-0.875 -1.15625,-1.34375 -0.75,-0.48438 -1.6875,-0.48438 -1.34375,0 -2.3125,0.92188 -0.95312,0.92187 -0.95312,3.07812 z m 9.42955,4.625 v -9.54687 h 1.29687 l 5.01563,7.5 v -7.5 h 1.20312 v 9.54687 h -1.29687 l -5.01563,-7.5 v 7.5 z"
       fill-rule="nonzero"
       id="path93" />
    <path
       fill="#ffffff"
       d="m 159.12671,257.93887 v -0.875 q -0.65625,1.03125 -1.9375,1.03125 -0.8125,0 -1.51563,-0.45313 -0.6875,-0.45312 -1.07812,-1.26562 -0.375,-0.82811 -0.375,-1.89061 0,-1.03125 0.34375,-1.875 0.34375,-0.84375 1.03125,-1.28125 0.70312,-0.45312 1.54687,-0.45312 0.625,0 1.10938,0.26562 0.5,0.25 0.79687,0.67188 v -3.42188 h 1.17188 v 9.54686 z m -3.70313,-3.45311 q 0,1.32813 0.5625,1.98436 0.5625,0.65625 1.32813,0.65625 0.76562,0 1.29687,-0.625 0.53125,-0.62498 0.53125,-1.90623 0,-1.42188 -0.54687,-2.07813 -0.54688,-0.67187 -1.34375,-0.67187 -0.78125,0 -1.3125,0.64062 -0.51563,0.625 -0.51563,2 z m 11.14686,2.59373 q -0.65625,0.5625 -1.26563,0.79688 -0.59375,0.21875 -1.28125,0.21875 -1.14062,0 -1.75,-0.54688 -0.60937,-0.5625 -0.60937,-1.4375 0,-0.49998 0.21875,-0.92185 0.23437,-0.42188 0.60937,-0.67188 0.375,-0.25 0.84375,-0.39062 0.34375,-0.0781 1.04688,-0.17188 1.42187,-0.17187 2.09375,-0.40625 0,-0.23437 0,-0.29687 0,-0.71875 -0.32813,-1.01563 -0.45312,-0.39062 -1.34375,-0.39062 -0.8125,0 -1.21875,0.29687 -0.39062,0.28125 -0.57812,1.01563 l -1.14063,-0.15625 q 0.15625,-0.73438 0.51563,-1.1875 0.35937,-0.45313 1.03125,-0.6875 0.67187,-0.25 1.5625,-0.25 0.89062,0 1.4375,0.20312 0.5625,0.20313 0.8125,0.53125 0.26562,0.3125 0.375,0.79688 0.0469,0.29687 0.0469,1.07812 v 1.5625 q 0,1.62498 0.0781,2.06248 0.0781,0.4375 0.29687,0.82813 h -1.21875 q -0.1875,-0.35938 -0.23437,-0.85938 z m -0.0937,-2.60935 q -0.64063,0.26562 -1.92188,0.4375 -0.71875,0.10937 -1.01562,0.25 -0.29688,0.125 -0.46875,0.375 -0.15625,0.25 -0.15625,0.54686 0,0.46875 0.34375,0.78125 0.35937,0.3125 1.04687,0.3125 0.67188,0 1.20313,-0.29688 0.53125,-0.29687 0.78125,-0.8125 0.1875,-0.39061 0.1875,-1.17186 z m 5.5531,2.42185 0.17187,1.03125 q -0.5,0.10938 -0.89062,0.10938 -0.64063,0 -1,-0.20313 -0.34375,-0.20312 -0.48438,-0.53125 -0.14062,-0.32812 -0.14062,-1.3906 v -3.96875 h -0.85938 v -0.90625 h 0.85938 v -1.71875 l 1.17187,-0.70313 v 2.42188 h 1.17188 v 0.90625 h -1.17188 v 4.04687 q 0,0.49999 0.0469,0.64061 0.0625,0.14063 0.20312,0.23438 0.14063,0.0781 0.40625,0.0781 0.20313,0 0.51563,-0.0469 z m 5.65611,0.1875 q -0.65625,0.5625 -1.26563,0.79688 -0.59375,0.21875 -1.28125,0.21875 -1.14062,0 -1.75,-0.54688 -0.60937,-0.5625 -0.60937,-1.4375 0,-0.49998 0.21875,-0.92185 0.23437,-0.42188 0.60937,-0.67188 0.375,-0.25 0.84375,-0.39062 0.34375,-0.0781 1.04688,-0.17188 1.42187,-0.17187 2.09375,-0.40625 0,-0.23437 0,-0.29687 0,-0.71875 -0.32813,-1.01563 -0.45312,-0.39062 -1.34375,-0.39062 -0.8125,0 -1.21875,0.29687 -0.39062,0.28125 -0.57812,1.01563 l -1.14063,-0.15625 q 0.15625,-0.73438 0.51563,-1.1875 0.35937,-0.45313 1.03125,-0.6875 0.67187,-0.25 1.5625,-0.25 0.89062,0 1.4375,0.20312 0.5625,0.20313 0.8125,0.53125 0.26562,0.3125 0.375,0.79688 0.0469,0.29687 0.0469,1.07812 v 1.5625 q 0,1.62498 0.0781,2.06248 0.0781,0.4375 0.29687,0.82813 h -1.21875 q -0.1875,-0.35938 -0.23437,-0.85938 z m -0.0937,-2.60935 q -0.64063,0.26562 -1.92188,0.4375 -0.71875,0.10937 -1.01562,0.25 -0.29688,0.125 -0.46875,0.375 -0.15625,0.25 -0.15625,0.54686 0,0.46875 0.34375,0.78125 0.35937,0.3125 1.04687,0.3125 0.67188,0 1.20313,-0.29688 0.53125,-0.29687 0.78125,-0.8125 0.1875,-0.39061 0.1875,-1.17186 z"
       fill-rule="nonzero"
       id="path95" />
    <g
       filter="url(#shadowFilter-p.3)"
       id="g99">
      <use
         xlink:href="#p.3"
         transform="translate(0,2)"
         id="use97"
         x="0"
         y="0"
         width="100%"
         height="100%" />
    </g>
    <defs
       id="defs114">
      <filter
         id="shadowFilter-p.3"
         filterUnits="userSpaceOnUse">
        <feGaussianBlur
           in="SourceAlpha"
           stdDeviation="2.0"
           result="blur"
           id="feGaussianBlur101" />
        <feComponentTransfer
           in="blur"
           color-interpolation-filters="sRGB"
           id="feComponentTransfer111">
          <feFuncR
             type="linear"
             slope="0"
             intercept="0.0"
             id="feFuncR103" />
          <feFuncG
             type="linear"
             slope="0"
             intercept="0.0"
             id="feFuncG105" />
          <feFuncB
             type="linear"
             slope="0"
             intercept="0.0"
             id="feFuncB107" />
          <feFuncA
             type="linear"
             slope="0.5"
             intercept="0"
             id="feFuncA109" />
        </feComponentTransfer>
      </filter>
    </defs>
    <g
       id="p.3">
      <path
         fill="#3c78d8"
         d="M 1.1338583,25.821463 H 483.81636 V 65.322836 H 1.1338583 Z"
         fill-rule="evenodd"
         id="path116" />
      <path
         fill="#2f5fac"
         d="M 483.81635,25.821463 509.63779,0 v 39.50137 l -25.82144,25.821468 z"
         fill-rule="evenodd"
         id="path118" />
      <path
         fill="#6393df"
         d="M 1.1338583,25.821463 26.955323,0 H 509.63778 l -25.82144,25.821463 z"
         fill-rule="evenodd"
         id="path120" />
      <path
         fill="#000000"
         fill-opacity="0"
         d="M 1.1338583,25.821463 26.955323,0 H 509.63778 V 39.50137 L 483.81634,65.322838 H 1.1338413 Z m 0,0 H 483.81636 L 509.6378,0 m -25.82144,25.821463 v 39.501373"
         fill-rule="evenodd"
         id="path122" />
      <path
         fill="#ffffff"
         d="M 221.52979,51.432148 V 39.979023 h 1.51562 v 4.703125 h 5.95313 v -4.703125 h 1.51562 v 11.453125 h -1.51562 v -5.40625 h -5.95313 v 5.40625 z m 10.24219,0 4.40625,-11.453125 h 1.64062 l 4.6875,11.453125 h -1.73437 l -1.32813,-3.46875 h -4.79687 l -1.25,3.46875 z m 3.3125,-4.703125 h 3.89062 l -1.20312,-3.171875 q -0.54688,-1.453125 -0.8125,-2.375 -0.21875,1.09375 -0.60938,2.1875 z m 8.10937,1.015625 1.4375,-0.125 q 0.0937,0.859375 0.46875,1.421875 0.375,0.546875 1.15625,0.890625 0.78125,0.328125 1.75,0.328125 0.875,0 1.53125,-0.25 0.67188,-0.265625 0.98438,-0.703125 0.32812,-0.453125 0.32812,-0.984375 0,-0.546875 -0.3125,-0.9375 -0.3125,-0.40625 -1.03125,-0.6875 -0.45312,-0.171875 -2.03125,-0.546875 -1.57812,-0.390625 -2.21875,-0.71875 -0.8125,-0.4375 -1.21875,-1.0625 -0.40625,-0.640625 -0.40625,-1.4375 0,-0.859375 0.48438,-1.609375 0.5,-0.765625 1.4375,-1.15625 0.95312,-0.390625 2.10937,-0.390625 1.28125,0 2.25,0.421875 0.96875,0.40625 1.48438,1.203125 0.53125,0.796875 0.57812,1.796875 l -1.45312,0.109375 q -0.125,-1.078125 -0.79688,-1.625 -0.67187,-0.5625 -2,-0.5625 -1.375,0 -2,0.5 -0.625,0.5 -0.625,1.21875 0,0.609375 0.4375,1.015625 0.4375,0.390625 2.28125,0.8125 1.85938,0.421875 2.54688,0.734375 1,0.453125 1.46875,1.171875 0.48437,0.703125 0.48437,1.625 0,0.90625 -0.53125,1.71875 -0.51562,0.8125 -1.5,1.265625 -0.98437,0.453125 -2.20312,0.453125 -1.5625,0 -2.60938,-0.453125 -1.04687,-0.46875 -1.65625,-1.375 -0.59375,-0.90625 -0.625,-2.0625 z m 11.23438,3.6875 V 39.979023 h 1.51562 v 4.703125 h 5.95313 v -4.703125 h 1.51562 v 11.453125 h -1.51562 v -5.40625 h -5.95313 v 5.40625 z"
         fill-rule="nonzero"
         id="path124" />
    </g>
    <path
       fill="#1155cc"
       d="m 262.62918,149.29659 h 188.97638 v 162.5197 H 262.62918 Z"
       fill-rule="evenodd"
       id="path127" />
    <path
       fill="#ffffff"
       d="m 315.66034,173.65659 v -11.45313 h 4.32813 q 1.14062,0 1.73437,0.10938 0.84375,0.14062 1.40625,0.53125 0.57813,0.39062 0.92188,1.10937 0.35937,0.70313 0.35937,1.5625 0,1.45313 -0.9375,2.46875 -0.92187,1.01563 -3.35937,1.01563 h -2.9375 v 4.65625 z m 1.51563,-6.01563 h 2.96875 q 1.46875,0 2.07812,-0.54687 0.625,-0.54688 0.625,-1.53125 0,-0.71875 -0.375,-1.23438 -0.35937,-0.51562 -0.95312,-0.67187 -0.375,-0.10938 -1.40625,-0.10938 h -2.9375 z m 8.96875,6.01563 v -8.29688 h 1.26562 v 1.25 q 0.48438,-0.875 0.89063,-1.15625 0.40625,-0.28125 0.90625,-0.28125 0.70312,0 1.4375,0.45313 l -0.48438,1.29687 q -0.51562,-0.29687 -1.03125,-0.29687 -0.45312,0 -0.82812,0.28125 -0.35938,0.26562 -0.51563,0.76562 -0.23437,0.75 -0.23437,1.64063 v 4.34375 z m 5.34375,-9.84375 v -1.60938 h 1.40625 v 1.60938 z m 0,9.84375 v -8.29688 h 1.40625 v 8.29688 z m 5.85156,0 -3.15625,-8.29688 h 1.48437 l 1.78125,4.96875 q 0.29688,0.79688 0.53125,1.67188 0.1875,-0.65625 0.53125,-1.57813 l 1.84375,-5.0625 h 1.4375 l -3.14062,8.29688 z m 11.10937,-1.03125 q -0.78125,0.67187 -1.5,0.95312 -0.71875,0.26563 -1.54687,0.26563 -1.375,0 -2.10938,-0.67188 -0.73437,-0.67187 -0.73437,-1.70312 0,-0.60938 0.28125,-1.10938 0.28125,-0.51562 0.71875,-0.8125 0.45312,-0.3125 1.01562,-0.46875 0.42188,-0.10937 1.25,-0.20312 1.70313,-0.20313 2.51563,-0.48438 0,-0.29687 0,-0.375 0,-0.85937 -0.39063,-1.20312 -0.54687,-0.48438 -1.60937,-0.48438 -0.98438,0 -1.46875,0.35938 -0.46875,0.34375 -0.6875,1.21875 l -1.375,-0.1875 q 0.1875,-0.875 0.60937,-1.42188 0.4375,-0.54687 1.25,-0.82812 0.8125,-0.29688 1.875,-0.29688 1.0625,0 1.71875,0.25 0.67188,0.25 0.98438,0.625 0.3125,0.375 0.4375,0.95313 0.0781,0.35937 0.0781,1.29687 v 1.875 q 0,1.96875 0.0781,2.48438 0.0937,0.51562 0.35937,1 h -1.46875 q -0.21875,-0.4375 -0.28125,-1.03125 z m -0.10937,-3.14063 q -0.76563,0.3125 -2.29688,0.53125 -0.875,0.125 -1.23437,0.28125 -0.35938,0.15625 -0.5625,0.46875 -0.1875,0.29688 -0.1875,0.65625 0,0.5625 0.42187,0.9375 0.4375,0.375 1.25,0.375 0.8125,0 1.4375,-0.34375 0.64063,-0.35937 0.9375,-0.98437 0.23438,-0.46875 0.23438,-1.40625 z m 6.66406,2.90625 0.20313,1.25 q -0.59375,0.125 -1.0625,0.125 -0.76563,0 -1.1875,-0.23437 -0.42188,-0.25 -0.59375,-0.64063 -0.17188,-0.40625 -0.17188,-1.67187 v -4.76563 h -1.03125 v -1.09375 h 1.03125 v -2.0625 l 1.40625,-0.84375 v 2.90625 h 1.40625 v 1.09375 h -1.40625 v 4.84375 q 0,0.60938 0.0625,0.78125 0.0781,0.17188 0.25,0.28125 0.17188,0.0937 0.48438,0.0937 0.23437,0 0.60937,-0.0625 z m 7.05469,-1.40625 1.45312,0.17188 q -0.34375,1.28125 -1.28125,1.98437 -0.92187,0.70313 -2.35937,0.70313 -1.82813,0 -2.89063,-1.125 -1.0625,-1.125 -1.0625,-3.14063 0,-2.09375 1.07813,-3.25 1.07812,-1.15625 2.79687,-1.15625 1.65625,0 2.70313,1.14063 1.0625,1.125 1.0625,3.17187 0,0.125 0,0.375 h -6.1875 q 0.0781,1.375 0.76562,2.10938 0.70313,0.71875 1.73438,0.71875 0.78125,0 1.32812,-0.40625 0.54688,-0.40625 0.85938,-1.29688 z m -4.60938,-2.28125 h 4.625 q -0.0937,-1.04687 -0.53125,-1.5625 -0.67187,-0.8125 -1.73437,-0.8125 -0.96875,0 -1.64063,0.65625 -0.65625,0.64063 -0.71875,1.71875 z m 17.65625,4.95313 v -1.04688 q -0.78125,1.23438 -2.3125,1.23438 -1,0 -1.82812,-0.54688 -0.82813,-0.54687 -1.29688,-1.53125 -0.45312,-0.98437 -0.45312,-2.25 0,-1.25 0.40625,-2.25 0.42187,-1.01562 1.25,-1.54687 0.82812,-0.54688 1.85937,-0.54688 0.75,0 1.32813,0.3125 0.59375,0.3125 0.95312,0.82813 v -4.10938 h 1.40625 v 11.45313 z m -4.4375,-4.14063 q 0,1.59375 0.67188,2.39063 0.67187,0.78125 1.57812,0.78125 0.92188,0 1.5625,-0.75 0.65625,-0.76563 0.65625,-2.3125 0,-1.70313 -0.65625,-2.5 -0.65625,-0.79688 -1.625,-0.79688 -0.9375,0 -1.5625,0.76563 -0.625,0.76562 -0.625,2.42187 z m 13.36719,3.10938 q -0.78125,0.67187 -1.5,0.95312 -0.71875,0.26563 -1.54687,0.26563 -1.375,0 -2.10938,-0.67188 -0.73437,-0.67187 -0.73437,-1.70312 0,-0.60938 0.28125,-1.10938 0.28125,-0.51562 0.71875,-0.8125 0.45312,-0.3125 1.01562,-0.46875 0.42188,-0.10937 1.25,-0.20312 1.70313,-0.20313 2.51563,-0.48438 0,-0.29687 0,-0.375 0,-0.85937 -0.39063,-1.20312 -0.54687,-0.48438 -1.60937,-0.48438 -0.98438,0 -1.46875,0.35938 -0.46875,0.34375 -0.6875,1.21875 l -1.375,-0.1875 q 0.1875,-0.875 0.60937,-1.42188 0.4375,-0.54687 1.25,-0.82812 0.8125,-0.29688 1.875,-0.29688 1.0625,0 1.71875,0.25 0.67188,0.25 0.98438,0.625 0.3125,0.375 0.4375,0.95313 0.0781,0.35937 0.0781,1.29687 v 1.875 q 0,1.96875 0.0781,2.48438 0.0937,0.51562 0.35937,1 h -1.46875 q -0.21875,-0.4375 -0.28125,-1.03125 z m -0.10937,-3.14063 q -0.76563,0.3125 -2.29688,0.53125 -0.875,0.125 -1.23437,0.28125 -0.35938,0.15625 -0.5625,0.46875 -0.1875,0.29688 -0.1875,0.65625 0,0.5625 0.42187,0.9375 0.4375,0.375 1.25,0.375 0.8125,0 1.4375,-0.34375 0.64063,-0.35937 0.9375,-0.98437 0.23438,-0.46875 0.23438,-1.40625 z m 6.66406,2.90625 0.20312,1.25 q -0.59375,0.125 -1.0625,0.125 -0.76562,0 -1.1875,-0.23437 -0.42187,-0.25 -0.59375,-0.64063 -0.17187,-0.40625 -0.17187,-1.67187 v -4.76563 h -1.03125 v -1.09375 h 1.03125 v -2.0625 l 1.40625,-0.84375 v 2.90625 h 1.40625 v 1.09375 h -1.40625 v 4.84375 q 0,0.60938 0.0625,0.78125 0.0781,0.17188 0.25,0.28125 0.17187,0.0937 0.48437,0.0937 0.23438,0 0.60938,-0.0625 z m 6.78906,0.23438 q -0.78125,0.67187 -1.5,0.95312 -0.71875,0.26563 -1.54687,0.26563 -1.375,0 -2.10938,-0.67188 -0.73437,-0.67187 -0.73437,-1.70312 0,-0.60938 0.28125,-1.10938 0.28125,-0.51562 0.71875,-0.8125 0.45312,-0.3125 1.01562,-0.46875 0.42188,-0.10937 1.25,-0.20312 1.70313,-0.20313 2.51563,-0.48438 0,-0.29687 0,-0.375 0,-0.85937 -0.39063,-1.20312 -0.54687,-0.48438 -1.60937,-0.48438 -0.98438,0 -1.46875,0.35938 -0.46875,0.34375 -0.6875,1.21875 l -1.375,-0.1875 q 0.1875,-0.875 0.60937,-1.42188 0.4375,-0.54687 1.25,-0.82812 0.8125,-0.29688 1.875,-0.29688 1.0625,0 1.71875,0.25 0.67188,0.25 0.98438,0.625 0.3125,0.375 0.4375,0.95313 0.0781,0.35937 0.0781,1.29687 v 1.875 q 0,1.96875 0.0781,2.48438 0.0937,0.51562 0.35937,1 h -1.46875 q -0.21875,-0.4375 -0.28125,-1.03125 z m -0.10937,-3.14063 q -0.76563,0.3125 -2.29688,0.53125 -0.875,0.125 -1.23437,0.28125 -0.35938,0.15625 -0.5625,0.46875 -0.1875,0.29688 -0.1875,0.65625 0,0.5625 0.42187,0.9375 0.4375,0.375 1.25,0.375 0.8125,0 1.4375,-0.34375 0.64063,-0.35937 0.9375,-0.98437 0.23438,-0.46875 0.23438,-1.40625 z"
       fill-rule="nonzero"
       id="path129" />
    <path
       fill="#3c78d8"
       d="m 280.68954,187.09186 h 69.00787 v 87.99454 l -11.50153,11.50153 h -57.50634 z"
       fill-rule="evenodd"
       id="path131" />
    <path
       fill="#2f5fac"
       d="m 338.1959,286.58792 2.30029,-9.20123 9.20124,-2.3003 z"
       fill-rule="evenodd"
       id="path133" />
    <path
       fill="#000000"
       fill-opacity="0"
       d="m 338.1959,286.58792 2.30029,-9.20123 9.20124,-2.3003 -11.50153,11.50153 h -57.50635 v -99.49606 h 69.00787 v 87.99454"
       fill-rule="evenodd"
       id="path135" />
    <path
       stroke="#6d9eeb"
       stroke-width="1"
       stroke-linejoin="round"
       stroke-linecap="butt"
       d="m 338.1959,286.58792 2.30029,-9.20123 9.20124,-2.3003 -11.50153,11.50153 h -57.50635 v -99.49606 h 69.00787 v 87.99454"
       fill-rule="evenodd"
       id="path137" />
    <path
       fill="#ffffff"
       d="m 297.8111,225.186 1.125,-0.15625 q 0.0469,1.09375 0.40625,1.5 0.375,0.39062 1.01562,0.39062 0.48438,0 0.82813,-0.21875 0.34375,-0.21875 0.46875,-0.57812 0.125,-0.375 0.125,-1.20313 v -6.57812 h 1.26562 v 6.5 q 0,1.20312 -0.29687,1.85937 -0.28125,0.65625 -0.90625,1 -0.625,0.34375 -1.46875,0.34375 -1.26563,0 -1.9375,-0.71875 -0.65625,-0.71875 -0.625,-2.14062 z m 6.86719,-0.35938 1.20312,-0.10937 q 0.0781,0.71875 0.39063,1.1875 0.3125,0.45312 0.95312,0.73437 0.65625,0.28125 1.46875,0.28125 0.71875,0 1.26563,-0.21875 0.5625,-0.21875 0.82812,-0.57812 0.26563,-0.375 0.26563,-0.82813 0,-0.45312 -0.26563,-0.78125 -0.25,-0.32812 -0.84375,-0.5625 -0.39062,-0.15625 -1.70312,-0.46875 -1.3125,-0.3125 -1.84375,-0.59375 -0.67188,-0.35937 -1.01563,-0.89062 -0.32812,-0.53125 -0.32812,-1.1875 0,-0.71875 0.40625,-1.34375 0.40625,-0.625 1.1875,-0.95313 0.79687,-0.32812 1.76562,-0.32812 1.04688,0 1.85938,0.34375 0.8125,0.34375 1.25,1.01562 0.4375,0.65625 0.46875,1.48438 l -1.20313,0.0937 q -0.10937,-0.90625 -0.67187,-1.35938 -0.5625,-0.46875 -1.65625,-0.46875 -1.14063,0 -1.67188,0.42188 -0.51562,0.42187 -0.51562,1.01562 0,0.51563 0.35937,0.84375 0.375,0.32813 1.90625,0.6875 1.54688,0.34375 2.10938,0.59375 0.84375,0.39063 1.23437,0.98438 0.39063,0.57812 0.39063,1.35937 0,0.75 -0.4375,1.4375 -0.42188,0.67188 -1.25,1.04688 -0.8125,0.35937 -1.82813,0.35937 -1.29687,0 -2.17187,-0.375 -0.875,-0.375 -1.375,-1.125 -0.5,-0.76562 -0.53125,-1.71875 z m 8.93664,-1.57812 q 0,-2.375 1.28125,-3.71875 1.28125,-1.34375 3.29688,-1.34375 1.3125,0 2.375,0.625 1.0625,0.625 1.60937,1.76562 0.5625,1.125 0.5625,2.5625 0,1.4375 -0.59375,2.59375 -0.57812,1.14063 -1.65625,1.73438 -1.0625,0.57812 -2.3125,0.57812 -1.34375,0 -2.40625,-0.64062 -1.0625,-0.65625 -1.60937,-1.78125 -0.54688,-1.125 -0.54688,-2.375 z m 1.3125,0.0156 q 0,1.71875 0.92188,2.71875 0.92187,0.98438 2.32812,0.98438 1.42188,0 2.34375,-1 0.92188,-1 0.92188,-2.84375 0,-1.15625 -0.40625,-2.03125 -0.39063,-0.875 -1.15625,-1.34375 -0.75,-0.48438 -1.6875,-0.48438 -1.34375,0 -2.3125,0.92188 -0.95313,0.92187 -0.95313,3.07812 z m 9.42954,4.625 v -9.54687 h 1.29687 l 5.01563,7.5 v -7.5 h 1.20312 v 9.54687 h -1.29687 l -5.01563,-7.5 v 7.5 z"
       fill-rule="nonzero"
       id="path139" />
    <path
       fill="#ffffff"
       d="m 292.26575,241.82663 1.15625,-0.1875 q 0.10938,0.70312 0.54688,1.07812 0.45312,0.35938 1.25,0.35938 0.8125,0 1.20312,-0.32813 0.39063,-0.32812 0.39063,-0.76562 0,-0.39063 -0.35938,-0.625 -0.23437,-0.15625 -1.1875,-0.39063 -1.29687,-0.32812 -1.79687,-0.5625 -0.48438,-0.25 -0.75,-0.65625 -0.25,-0.42187 -0.25,-0.9375 0,-0.45312 0.20312,-0.84375 0.21875,-0.40625 0.57813,-0.67187 0.28125,-0.1875 0.75,-0.32813 0.46875,-0.14062 1.01562,-0.14062 0.8125,0 1.42188,0.23437 0.60937,0.23438 0.90625,0.64063 0.29687,0.39062 0.40625,1.0625 l -1.14063,0.15625 q -0.0781,-0.53125 -0.45312,-0.82813 -0.375,-0.3125 -1.0625,-0.3125 -0.8125,0 -1.15625,0.26563 -0.34375,0.26562 -0.34375,0.625 0,0.23437 0.14062,0.42187 0.15625,0.1875 0.45313,0.3125 0.17187,0.0625 1.03125,0.29688 1.25,0.32812 1.73437,0.54687 0.5,0.20313 0.78125,0.60938 0.28125,0.40625 0.28125,1 0,0.59375 -0.34375,1.10937 -0.34375,0.51563 -1,0.79688 -0.64062,0.28125 -1.45312,0.28125 -1.34375,0 -2.04688,-0.5625 -0.70312,-0.5625 -0.90625,-1.65625 z m 11.64844,-0.46875 1.15625,0.15625 q -0.1875,1.1875 -0.96875,1.85937 -0.78125,0.67188 -1.92188,0.67188 -1.40625,0 -2.28125,-0.92188 -0.85937,-0.9375 -0.85937,-2.65625 0,-1.125 0.375,-1.96875 0.375,-0.84375 1.125,-1.25 0.76562,-0.42187 1.65625,-0.42187 1.125,0 1.84375,0.57812 0.71875,0.5625 0.92187,1.60938 l -1.14062,0.17187 q -0.17188,-0.70312 -0.59375,-1.04687 -0.40625,-0.35938 -0.98438,-0.35938 -0.89062,0 -1.45312,0.64063 -0.54688,0.64062 -0.54688,2 0,1.40625 0.53125,2.03125 0.54688,0.625 1.40625,0.625 0.6875,0 1.14063,-0.42188 0.46875,-0.42187 0.59375,-1.29687 z m 2.14844,2.53125 v -9.54688 h 1.17187 v 3.42188 q 0.82813,-0.9375 2.07813,-0.9375 0.76562,0 1.32812,0.29687 0.5625,0.29688 0.8125,0.84375 0.25,0.53125 0.25,1.54688 v 4.375 h -1.17187 v -4.375 q 0,-0.89063 -0.39063,-1.28125 -0.375,-0.40625 -1.07812,-0.40625 -0.51563,0 -0.98438,0.28125 -0.45312,0.26562 -0.65625,0.73437 -0.1875,0.45313 -0.1875,1.26563 v 3.78125 z m 12.14685,-2.21875 1.20312,0.14062 q -0.28125,1.0625 -1.0625,1.65625 -0.76562,0.57813 -1.96875,0.57813 -1.51562,0 -2.40625,-0.9375 -0.89062,-0.9375 -0.89062,-2.60938 0,-1.75 0.89062,-2.70312 0.90625,-0.96875 2.34375,-0.96875 1.39063,0 2.26563,0.9375 0.875,0.9375 0.875,2.65625 0,0.10937 0,0.3125 h -5.15625 q 0.0625,1.14062 0.64062,1.75 0.57813,0.59375 1.4375,0.59375 0.65625,0 1.10938,-0.32813 0.45312,-0.34375 0.71875,-1.07812 z m -3.84375,-1.90625 h 3.85937 q -0.0781,-0.85938 -0.4375,-1.29688 -0.5625,-0.6875 -1.45312,-0.6875 -0.8125,0 -1.35938,0.54688 -0.54687,0.53125 -0.60937,1.4375 z m 6.52185,4.125 v -6.90625 h 1.04687 v 0.96875 q 0.32813,-0.51563 0.85938,-0.8125 0.54687,-0.3125 1.23437,-0.3125 0.78125,0 1.26563,0.3125 0.48437,0.3125 0.6875,0.89062 0.82812,-1.20312 2.14062,-1.20312 1.03125,0 1.57813,0.57812 0.5625,0.5625 0.5625,1.73438 v 4.75 h -1.17188 v -4.35938 q 0,-0.70312 -0.125,-1 -0.10937,-0.3125 -0.40625,-0.5 -0.29687,-0.1875 -0.70312,-0.1875 -0.71875,0 -1.20313,0.48438 -0.48437,0.48437 -0.48437,1.54687 v 4.01563 h -1.17188 v -4.48438 q 0,-0.78125 -0.29687,-1.17187 -0.28125,-0.39063 -0.92188,-0.39063 -0.5,0 -0.92187,0.26563 -0.42188,0.25 -0.60938,0.75 -0.1875,0.5 -0.1875,1.45312 v 3.57813 z m 15.61807,-0.85938 q -0.65625,0.5625 -1.26563,0.79688 -0.59375,0.21875 -1.28125,0.21875 -1.14062,0 -1.75,-0.54688 -0.60937,-0.5625 -0.60937,-1.4375 0,-0.5 0.21875,-0.92187 0.23437,-0.42188 0.60937,-0.67188 0.375,-0.25 0.84375,-0.39062 0.34375,-0.0781 1.04688,-0.17188 1.42187,-0.17187 2.09375,-0.40625 0,-0.23437 0,-0.29687 0,-0.71875 -0.32813,-1.01563 -0.45312,-0.39062 -1.34375,-0.39062 -0.8125,0 -1.21875,0.29687 -0.39062,0.28125 -0.57812,1.01563 l -1.14063,-0.15625 q 0.15625,-0.73438 0.51563,-1.1875 0.35937,-0.45313 1.03125,-0.6875 0.67187,-0.25 1.5625,-0.25 0.89062,0 1.4375,0.20312 0.5625,0.20313 0.8125,0.53125 0.26562,0.3125 0.375,0.79688 0.0469,0.29687 0.0469,1.07812 v 1.5625 q 0,1.625 0.0781,2.0625 0.0781,0.4375 0.29687,0.82813 h -1.21875 q -0.1875,-0.35938 -0.23437,-0.85938 z m -0.0937,-2.60937 q -0.64063,0.26562 -1.92188,0.4375 -0.71875,0.10937 -1.01562,0.25 -0.29688,0.125 -0.46875,0.375 -0.15625,0.25 -0.15625,0.54687 0,0.46875 0.34375,0.78125 0.35937,0.3125 1.04687,0.3125 0.67188,0 1.20313,-0.29687 0.53125,-0.29688 0.78125,-0.8125 0.1875,-0.39063 0.1875,-1.17188 z"
       fill-rule="nonzero"
       id="path141" />
    <path
       fill="#3c78d8"
       d="m 362.8628,203.67673 v 0 c 0,-9.15956 15.44794,-16.58487 34.50394,-16.58487 19.056,0 34.50393,7.42531 34.50393,16.58487 v 66.33945 c 0,9.15958 -15.44793,16.58487 -34.50393,16.58487 -19.056,0 -34.50394,-7.42529 -34.50394,-16.58487 z"
       fill-rule="evenodd"
       id="path143" />
    <path
       fill="#000000"
       fill-opacity="0"
       d="m 431.87067,203.67673 v 0 c 0,9.15956 -15.44794,16.58487 -34.50394,16.58487 -19.056,0 -34.50393,-7.42531 -34.50393,-16.58487"
       fill-rule="evenodd"
       id="path145" />
    <path
       fill="#000000"
       fill-opacity="0"
       d="m 362.8628,203.67673 v 0 c 0,-9.15956 15.44794,-16.58487 34.50394,-16.58487 19.056,0 34.50393,7.42531 34.50393,16.58487 v 66.33945 c 0,9.15958 -15.44793,16.58487 -34.50393,16.58487 -19.056,0 -34.50394,-7.42529 -34.50394,-16.58487 z"
       fill-rule="evenodd"
       id="path147" />
    <path
       stroke="#6d9eeb"
       stroke-width="1"
       stroke-linejoin="round"
       stroke-linecap="butt"
       d="m 431.87067,203.67673 v 0 c 0,9.15956 -15.44794,16.58487 -34.50394,16.58487 -19.056,0 -34.50393,-7.42531 -34.50393,-16.58487"
       fill-rule="evenodd"
       id="path149" />
    <path
       stroke="#6d9eeb"
       stroke-width="1"
       stroke-linejoin="round"
       stroke-linecap="butt"
       d="m 362.8628,203.67673 v 0 c 0,-9.15956 15.44794,-16.58487 34.50394,-16.58487 19.056,0 34.50393,7.42531 34.50393,16.58487 v 66.33945 c 0,9.15958 -15.44793,16.58487 -34.50393,16.58487 -19.056,0 -34.50394,-7.42529 -34.50394,-16.58487 z"
       fill-rule="evenodd"
       id="path151" />
    <path
       fill="#ffffff"
       d="m 379.98434,239.23576 1.125,-0.15625 q 0.0469,1.09375 0.40625,1.5 0.375,0.39062 1.01562,0.39062 0.48438,0 0.82813,-0.21875 0.34375,-0.21875 0.46875,-0.57812 0.125,-0.375 0.125,-1.20313 v -6.57812 h 1.26562 v 6.5 q 0,1.20312 -0.29687,1.85937 -0.28125,0.65625 -0.90625,1 -0.625,0.34375 -1.46875,0.34375 -1.26563,0 -1.9375,-0.71875 -0.65625,-0.71875 -0.625,-2.14062 z m 6.86719,-0.35938 1.20312,-0.10937 q 0.0781,0.71875 0.39063,1.1875 0.3125,0.45312 0.95312,0.73437 0.65625,0.28125 1.46875,0.28125 0.71875,0 1.26563,-0.21875 0.5625,-0.21875 0.82812,-0.57812 0.26563,-0.375 0.26563,-0.82813 0,-0.45312 -0.26563,-0.78125 -0.25,-0.32812 -0.84375,-0.5625 -0.39062,-0.15625 -1.70312,-0.46875 -1.3125,-0.3125 -1.84375,-0.59375 -0.67188,-0.35937 -1.01563,-0.89062 -0.32812,-0.53125 -0.32812,-1.1875 0,-0.71875 0.40625,-1.34375 0.40625,-0.625 1.1875,-0.95313 0.79687,-0.32812 1.76562,-0.32812 1.04688,0 1.85938,0.34375 0.8125,0.34375 1.25,1.01562 0.4375,0.65625 0.46875,1.48438 l -1.20313,0.0937 q -0.10937,-0.90625 -0.67187,-1.35938 -0.5625,-0.46875 -1.65625,-0.46875 -1.14063,0 -1.67188,0.42188 -0.51562,0.42187 -0.51562,1.01562 0,0.51563 0.35937,0.84375 0.375,0.32813 1.90625,0.6875 1.54688,0.34375 2.10938,0.59375 0.84375,0.39063 1.23437,0.98438 0.39063,0.57812 0.39063,1.35937 0,0.75 -0.4375,1.4375 -0.42188,0.67188 -1.25,1.04688 -0.8125,0.35937 -1.82813,0.35937 -1.29687,0 -2.17187,-0.375 -0.875,-0.375 -1.375,-1.125 -0.5,-0.76562 -0.53125,-1.71875 z m 8.93661,-1.57812 q 0,-2.375 1.28125,-3.71875 1.28125,-1.34375 3.29688,-1.34375 1.3125,0 2.375,0.625 1.0625,0.625 1.60937,1.76562 0.5625,1.125 0.5625,2.5625 0,1.4375 -0.59375,2.59375 -0.57812,1.14063 -1.65625,1.73438 -1.0625,0.57812 -2.3125,0.57812 -1.34375,0 -2.40625,-0.64062 -1.0625,-0.65625 -1.60937,-1.78125 -0.54688,-1.125 -0.54688,-2.375 z m 1.3125,0.0156 q 0,1.71875 0.92188,2.71875 0.92187,0.98438 2.32812,0.98438 1.42188,0 2.34375,-1 0.92188,-1 0.92188,-2.84375 0,-1.15625 -0.40625,-2.03125 -0.39063,-0.875 -1.15625,-1.34375 -0.75,-0.48438 -1.6875,-0.48438 -1.34375,0 -2.3125,0.92188 -0.95313,0.92187 -0.95313,3.07812 z m 9.42957,4.625 v -9.54687 h 1.29687 l 5.01563,7.5 v -7.5 h 1.20312 v 9.54687 h -1.29687 l -5.01563,-7.5 v 7.5 z"
       fill-rule="nonzero"
       id="path153" />
    <path
       fill="#ffffff"
       d="m 389.7559,257.93887 v -0.875 q -0.65625,1.03125 -1.9375,1.03125 -0.8125,0 -1.51563,-0.45313 -0.6875,-0.45312 -1.07812,-1.26562 -0.375,-0.82811 -0.375,-1.89061 0,-1.03125 0.34375,-1.875 0.34375,-0.84375 1.03125,-1.28125 0.70312,-0.45312 1.54687,-0.45312 0.625,0 1.10938,0.26562 0.5,0.25 0.79687,0.67188 v -3.42188 h 1.17188 v 9.54686 z m -3.70313,-3.45311 q 0,1.32813 0.5625,1.98436 0.5625,0.65625 1.32813,0.65625 0.76562,0 1.29687,-0.625 0.53125,-0.62498 0.53125,-1.90623 0,-1.42188 -0.54687,-2.07813 -0.54688,-0.67187 -1.34375,-0.67187 -0.78125,0 -1.3125,0.64062 -0.51563,0.625 -0.51563,2 z m 11.14686,2.59373 q -0.65625,0.5625 -1.26563,0.79688 -0.59375,0.21875 -1.28125,0.21875 -1.14062,0 -1.75,-0.54688 -0.60937,-0.5625 -0.60937,-1.4375 0,-0.49998 0.21875,-0.92185 0.23437,-0.42188 0.60937,-0.67188 0.375,-0.25 0.84375,-0.39062 0.34375,-0.0781 1.04688,-0.17188 1.42187,-0.17187 2.09375,-0.40625 0,-0.23437 0,-0.29687 0,-0.71875 -0.32813,-1.01563 -0.45312,-0.39062 -1.34375,-0.39062 -0.8125,0 -1.21875,0.29687 -0.39062,0.28125 -0.57812,1.01563 l -1.14063,-0.15625 q 0.15625,-0.73438 0.51563,-1.1875 0.35937,-0.45313 1.03125,-0.6875 0.67187,-0.25 1.5625,-0.25 0.89062,0 1.4375,0.20312 0.5625,0.20313 0.8125,0.53125 0.26562,0.3125 0.375,0.79688 0.0469,0.29687 0.0469,1.07812 v 1.5625 q 0,1.62498 0.0781,2.06248 0.0781,0.4375 0.29687,0.82813 H 397.434 q -0.1875,-0.35938 -0.23437,-0.85938 z m -0.0937,-2.60935 q -0.64063,0.26562 -1.92188,0.4375 -0.71875,0.10937 -1.01562,0.25 -0.29688,0.125 -0.46875,0.375 -0.15625,0.25 -0.15625,0.54686 0,0.46875 0.34375,0.78125 0.35937,0.3125 1.04687,0.3125 0.67188,0 1.20313,-0.29688 0.53125,-0.29687 0.78125,-0.8125 0.1875,-0.39061 0.1875,-1.17186 z m 5.5531,2.42185 0.17187,1.03125 q -0.5,0.10938 -0.89062,0.10938 -0.64063,0 -1,-0.20313 -0.34375,-0.20312 -0.48438,-0.53125 -0.14062,-0.32812 -0.14062,-1.3906 v -3.96875 h -0.85938 v -0.90625 h 0.85938 v -1.71875 l 1.17187,-0.70313 v 2.42188 h 1.17188 v 0.90625 h -1.17188 v 4.04687 q 0,0.49999 0.0469,0.64061 0.0625,0.14063 0.20312,0.23438 0.14063,0.0781 0.40625,0.0781 0.20313,0 0.51563,-0.0469 z m 5.65612,0.1875 q -0.65625,0.5625 -1.26562,0.79688 -0.59375,0.21875 -1.28125,0.21875 -1.14063,0 -1.75,-0.54688 -0.60938,-0.5625 -0.60938,-1.4375 0,-0.49998 0.21875,-0.92185 0.23438,-0.42188 0.60938,-0.67188 0.375,-0.25 0.84375,-0.39062 0.34375,-0.0781 1.04687,-0.17188 1.42188,-0.17187 2.09375,-0.40625 0,-0.23437 0,-0.29687 0,-0.71875 -0.32812,-1.01563 -0.45313,-0.39062 -1.34375,-0.39062 -0.8125,0 -1.21875,0.29687 -0.39063,0.28125 -0.57813,1.01563 l -1.14062,-0.15625 q 0.15625,-0.73438 0.51562,-1.1875 0.35938,-0.45313 1.03125,-0.6875 0.67188,-0.25 1.5625,-0.25 0.89063,0 1.4375,0.20312 0.5625,0.20313 0.8125,0.53125 0.26563,0.3125 0.375,0.79688 0.0469,0.29687 0.0469,1.07812 v 1.5625 q 0,1.62498 0.0781,2.06248 0.0781,0.4375 0.29688,0.82813 h -1.21875 q -0.1875,-0.35938 -0.23438,-0.85938 z m -0.0937,-2.60935 q -0.64062,0.26562 -1.92187,0.4375 -0.71875,0.10937 -1.01563,0.25 -0.29687,0.125 -0.46875,0.375 -0.15625,0.25 -0.15625,0.54686 0,0.46875 0.34375,0.78125 0.35938,0.3125 1.04688,0.3125 0.67187,0 1.20312,-0.29688 0.53125,-0.29687 0.78125,-0.8125 0.1875,-0.39061 0.1875,-1.17186 z"
       fill-rule="nonzero"
       id="path155" />
  </g>
</svg>
